<?xml version="1.0" encoding="utf-8"?>
<!-- Generator: Adobe Illustrator 23.0.1, SVG Export Plug-In . SVG Version: 6.00 Build 0)  -->
<svg version="1.0" id="レイヤー_1" xmlns="http://www.w3.org/2000/svg" xmlns:xlink="http://www.w3.org/1999/xlink" x="0px"
	 y="0px" viewBox="0 0 12.68 7.67" style="enable-background:new 0 0 12.68 7.67;" xml:space="preserve">
<style type="text/css">
	.st0{fill:#FFFFFF;}
	.st1{fill:#F5AB18;}
</style>
<polyline class="st0" points="10.52,7.39 9.28,7.39 9.28,0.26 12.38,0.26 12.38,5.63 10.52,7.39 "/>
<rect x="0.32" y="0.26" class="st0" width="8.64" height="7.13"/>
<path class="st1" d="M3.67,3.78c0,0.17-0.03,0.34-0.09,0.48C3.52,4.41,3.43,4.53,3.31,4.64C3.2,4.74,3.08,4.81,2.95,4.86
	C2.82,4.91,2.67,4.93,2.52,4.93S2.23,4.91,2.09,4.86C1.96,4.81,1.84,4.74,1.74,4.65C1.62,4.54,1.53,4.42,1.47,4.27
	c-0.07-0.15-0.1-0.32-0.1-0.5c0-0.17,0.03-0.32,0.08-0.46S1.59,3.05,1.7,2.93c0.1-0.1,0.22-0.18,0.36-0.24
	C2.2,2.64,2.35,2.61,2.51,2.61s0.31,0.03,0.45,0.08s0.26,0.12,0.36,0.22c0.12,0.11,0.2,0.24,0.26,0.38
	C3.64,3.45,3.67,3.61,3.67,3.78 M3.11,3.8c0-0.11-0.02-0.22-0.06-0.33S2.96,3.27,2.88,3.2L2.71,3.09L2.5,3.05L2.29,3.09L2.12,3.21
	C2.05,3.28,2,3.36,1.96,3.46S1.9,3.67,1.9,3.78c0,0.12,0.02,0.23,0.06,0.33C2,4.21,2.05,4.29,2.12,4.36l0.17,0.11L2.5,4.51l0.2-0.04
	l0.17-0.11C2.94,4.3,2.99,4.22,3.03,4.12C3.09,4.01,3.11,3.91,3.11,3.8z"/>
<path class="st1" d="M5.55,3.11c-0.03,0-0.1,0-0.22,0c-0.11,0-0.23,0-0.35,0H4.74H4.52c0,0.08,0,0.17,0,0.27c0,0.1,0,0.19,0,0.27
	H4.7h0.21c0.13,0,0.26,0,0.38,0c0.13,0,0.2,0,0.23,0V4C5.49,4,5.4,4,5.26,4C5.11,4,4.99,4,4.9,4H4.7H4.53c0,0.18,0,0.34,0,0.49
	s0,0.27,0,0.39H3.99c0-0.08,0-0.2,0-0.36c0-0.16,0-0.41,0-0.76c0-0.13,0-0.29,0-0.48s0-0.39,0-0.59c0.07,0,0.17,0,0.3,0
	c0.13,0,0.27,0,0.43,0c0.18,0,0.35,0,0.51,0c0.17,0,0.27,0,0.3,0v0.42"/>
<path class="st1" d="M7.54,3.11c-0.03,0-0.1,0-0.22,0c-0.11,0-0.23,0-0.35,0H6.73H6.51c0,0.08,0,0.17,0,0.27c0,0.1,0,0.19,0,0.27
	h0.18H6.9c0.13,0,0.25,0,0.38,0s0.2,0,0.23,0V4C7.48,4,7.39,4,7.25,4S6.98,4,6.89,4h-0.2H6.52c0,0.18,0,0.34,0,0.49s0,0.27,0,0.39
	H5.98c0-0.08,0-0.2,0-0.36c0-0.16,0-0.41,0-0.76c0-0.13,0-0.29,0-0.48s0-0.39,0-0.59c0.07,0,0.17,0,0.3,0c0.13,0,0.27,0,0.43,0
	c0.18,0,0.35,0,0.51,0c0.17,0,0.27,0,0.3,0v0.42"/>
</svg>
