<?xml version="1.0" encoding="utf-8"?>
<!-- Generator: Adobe Illustrator 23.0.1, SVG Export Plug-In . SVG Version: 6.00 Build 0)  -->
<svg version="1.0" id="レイヤー_1" xmlns="http://www.w3.org/2000/svg" xmlns:xlink="http://www.w3.org/1999/xlink" x="0px"
	 y="0px" viewBox="0 0 22.78 22.79" style="enable-background:new 0 0 22.78 22.79;" xml:space="preserve">
<style type="text/css">
	.st0{fill:url(#SVGID_1_);}
	.st1{fill:#2C3E4F;}
	.st2{fill:#FFFFFF;}
</style>
<g>
	<g>
		<radialGradient id="SVGID_1_" cx="11.4805" cy="0.5964" r="21.5487" gradientUnits="userSpaceOnUse">
			<stop  offset="0.2581" style="stop-color:#FFFFFF"/>
			<stop  offset="1" style="stop-color:#B3B3B3"/>
		</radialGradient>
		<circle class="st0" cx="11.37" cy="11.42" r="11.34"/>
	</g>
	<g>
		<polygon class="st1" points="13.26,8.02 9.49,6.4 5.72,8.02 5.72,16.44 9.49,14.82 13.26,16.44 17.03,14.82 17.03,6.4 		"/>
		
			<ellipse transform="matrix(0.6741 -0.7386 0.7386 0.6741 -4.7332 9.7333)" class="st2" cx="8.66" cy="10.23" rx="0.56" ry="0.47"/>
		
			<ellipse transform="matrix(0.6741 -0.7386 0.7386 0.6741 -4.9468 14.7322)" class="st2" cx="14.22" cy="12.97" rx="0.56" ry="0.47"/>
		
			<ellipse transform="matrix(0.6741 -0.7386 0.7386 0.6741 -1.5977 14.3905)" class="st2" cx="15.51" cy="9.01" rx="0.56" ry="0.47"/>
		
			<ellipse transform="matrix(0.7386 -0.6741 0.6741 0.7386 -4.6379 10.9387)" class="st2" cx="11.79" cy="11.45" rx="0.47" ry="0.56"/>
		
			<ellipse transform="matrix(0.7386 -0.6741 0.6741 0.7386 -3.5224 11.2773)" class="st2" cx="12.78" cy="10.18" rx="0.47" ry="0.56"/>
		
			<ellipse transform="matrix(0.6741 -0.7386 0.7386 0.6741 -7.3812 10.0778)" class="st2" cx="7.73" cy="13.4" rx="0.56" ry="0.47"/>
	</g>
</g>
</svg>
