<?xml version="1.0" encoding="utf-8"?>
<!-- Generator: Adobe Illustrator 23.0.1, SVG Export Plug-In . SVG Version: 6.00 Build 0)  -->
<svg version="1.1" id="レイヤー_1" xmlns="http://www.w3.org/2000/svg" xmlns:xlink="http://www.w3.org/1999/xlink" x="0px"
	 y="0px" viewBox="0 0 17.1 17.1" style="enable-background:new 0 0 17.1 17.1;" xml:space="preserve">
<style type="text/css">
	.st0{fill:#F4B61F;}
	.st1{display:none;}
	.st2{display:inline;}
	.st3{font-family:'NotoSansJP-Bold-83pv-RKSJ-H';}
	.st4{font-size:15px;}
	.st5{fill:url(#SVGID_1_);}
	.st6{fill:#2C3E4F;}
	.st7{display:inline;fill:#2C3E4F;}
</style>
<g>
	<g>
		<g>
			<path class="st0" d="M8.6,17.1L8.6,17.1c4.7,0,8.5-3.8,8.5-8.5l0,0c0-4.7-3.8-8.5-8.5-8.5l0,0c-4.7,0-8.5,3.8-8.5,8.5l0,0
				C0.1,13.3,3.9,17.1,8.6,17.1z"/>
		</g>
	</g>
</g>
<g id="_x31_" class="st1">
	<text transform="matrix(1 0 0 1 4.0357 13.9053)" class="st2 st3 st4">1</text>
</g>
<g id="_x32_" class="st1">
	<text transform="matrix(1 0 0 1 4.4078 14.2192)" class="st2 st3 st4">2</text>
</g>
<g id="_x33_" class="st1">
	<text transform="matrix(1 0 0 1 4.4078 14.2192)" class="st2 st3 st4">3</text>
</g>
<g id="_x34_" class="st1">
	<text transform="matrix(1 0 0 1 3.6754 14.0099)" class="st2 st3 st4">4</text>
</g>
<g id="_x35_" class="st1">
	<text transform="matrix(1 0 0 1 4.4078 14.2715)" class="st2 st3 st4">5</text>
</g>
<g id="_x36_" class="st1">
	<text transform="matrix(1 0 0 1 3.6754 14.2715)" class="st2 st3 st4">6</text>
</g>
<g id="_x37_" class="st1">
	<text transform="matrix(1 0 0 1 4.4078 14.4285)" class="st2 st3 st4">7</text>
</g>
<g id="_x38_" class="st1">
	<text transform="matrix(1 0 0 1 4.0939 14.2192)" class="st2 st3 st4">8</text>
</g>
<g id="_x31_0" class="st1">
	<text transform="matrix(1 0 0 1 1.321 14.2192)" class="st2 st3 st4">10</text>
</g>
<g id="レイヤー_1のコピー" class="st1">
	<g class="st2">
		<g>
			
				<radialGradient id="SVGID_1_" cx="7.9435" cy="-806.377" r="16.1626" gradientTransform="matrix(1 0 0 -1 0 -806.11)" gradientUnits="userSpaceOnUse">
				<stop  offset="0.2581" style="stop-color:#FFFFFF"/>
				<stop  offset="1" style="stop-color:#B3B3B3"/>
			</radialGradient>
			<path class="st5" d="M8.6,17.1L8.6,17.1c4.7,0,8.5-3.8,8.5-8.5l0,0c0-4.7-3.8-8.5-8.5-8.5l0,0c-4.7,0-8.5,3.8-8.5,8.5l0,0
				C0.1,13.3,3.9,17.1,8.6,17.1z"/>
		</g>
	</g>
</g>
<g class="st1">
	<g class="st2">
		<rect x="7.8" y="12" class="st6" width="1.7" height="1.7"/>
		<path class="st6" d="M8.7,3.5C6.8,3.5,5.3,5,5.3,6.9H7C7,6,7.7,5.2,8.7,5.2s1.7,0.8,1.7,1.7c0,1.7-2.5,1.5-2.5,4.2h1.7
			c0-1.9,2.5-2.1,2.5-4.2C12.1,5,10.5,3.5,8.7,3.5z"/>
	</g>
</g>
<g id="レイヤー_3" class="st1">
	<path class="st7" d="M8.6,6.7c-1,0-1.9,0.8-1.9,1.9s0.8,1.9,1.9,1.9s1.9-0.8,1.9-1.9S9.6,6.7,8.6,6.7z M12.8,8.1
		C12.5,6.2,11,4.6,9.1,4.4v-1H8.1v1C6.2,4.6,4.6,6.2,4.4,8.1h-1V9h1c0.2,1.9,1.8,3.5,3.7,3.7v1H9v-1C11,12.5,12.5,11,12.7,9h1V8.1
		H12.8z M8.6,11.8c-1.8,0-3.3-1.5-3.3-3.3s1.5-3.3,3.3-3.3s3.3,1.5,3.3,3.3S10.4,11.8,8.6,11.8z"/>
</g>
<g>
	<path d="M7.1,13.5c0-0.9,0.6-1.5,1.5-1.5c0.8,0,1.5,0.7,1.5,1.5S9.4,15,8.6,15C7.7,15,7.1,14.4,7.1,13.5z M7.5,4.9L7.4,2.6h2.4
		L9.7,4.9l-0.3,5.9H7.8L7.5,4.9z"/>
</g>
</svg>
