<?xml version="1.0" encoding="utf-8"?>
<!-- Generator: Adobe Illustrator 23.0.1, SVG Export Plug-In . SVG Version: 6.00 Build 0)  -->
<svg version="1.0" id="レイヤー_1" xmlns="http://www.w3.org/2000/svg" xmlns:xlink="http://www.w3.org/1999/xlink" x="0px"
	 y="0px" viewBox="0 0 17.12 17.15" style="enable-background:new 0 0 17.12 17.15;" xml:space="preserve">
<style type="text/css">
	.st0{fill:#F4B61F;}
	.st1{display:none;}
	.st2{display:inline;}
	.st3{font-family:'NotoSansJP-Bold-83pv-RKSJ-H';}
	.st4{font-size:15px;}
	.st5{enable-background:new    ;}
	.st6{letter-spacing:-1;}
	.st7{fill:url(#SVGID_1_);}
	.st8{fill:#2C3E4F;}
	.st9{display:inline;fill:#2C3E4F;}
</style>
<g>
	<g>
		<g>
			<path class="st0" d="M8.57,17.08L8.57,17.08c4.7,0,8.5-3.81,8.5-8.5l0,0c0-4.7-3.81-8.5-8.5-8.5l0,0c-4.7,0-8.5,3.81-8.5,8.5l0,0
				C0.06,13.27,3.87,17.08,8.57,17.08z"/>
		</g>
	</g>
</g>
<g id="_x31_" class="st1">
	<text transform="matrix(1 0 0 1 4.0357 13.9053)" class="st2 st3 st4">1</text>
</g>
<g id="_x32_" class="st1">
	<text transform="matrix(1 0 0 1 4.4078 14.2192)" class="st2 st3 st4">2</text>
</g>
<g id="_x33_">
	<g class="st5">
		<path d="M4.8,12.88l1.03-1.39c0.66,0.64,1.47,1.14,2.48,1.14c1.12,0,1.89-0.55,1.89-1.54c0-1.09-0.64-1.77-3.06-1.77V7.72
			c2.04,0,2.7-0.7,2.7-1.69c0-0.87-0.54-1.38-1.48-1.4c-0.79,0.02-1.44,0.39-2.1,0.99L5.13,4.28c0.96-0.84,2.03-1.37,3.33-1.37
			c2.15,0,3.6,1.05,3.6,2.96c0,1.2-0.67,2.07-1.86,2.54v0.07c1.26,0.35,2.22,1.28,2.22,2.73c0,2.04-1.79,3.22-3.9,3.22
			C6.76,14.43,5.58,13.77,4.8,12.88z"/>
	</g>
</g>
<g id="_x34_" class="st1">
	<text transform="matrix(1 0 0 1 3.6754 14.0099)" class="st2 st3 st4">4</text>
</g>
<g id="_x35_" class="st1">
	<text transform="matrix(1 0 0 1 4.4078 14.2715)" class="st2 st3 st4">5</text>
</g>
<g id="_x36_" class="st1">
	<text transform="matrix(1 0 0 1 3.6754 14.2715)" class="st2 st3 st4">6</text>
</g>
<g id="_x37_" class="st1">
	<text transform="matrix(1 0 0 1 4.4078 14.4285)" class="st2 st3 st4">7</text>
</g>
<g id="_x38_" class="st1">
	<text transform="matrix(1 0 0 1 4.0939 14.2192)" class="st2 st3 st4">8</text>
</g>
<g id="_x39_" class="st1">
	<text transform="matrix(1 0 0 1 4.4078 14.2192)" class="st2 st3 st4">9</text>
</g>
<g id="_x31_0" class="st1">
	<text transform="matrix(1 0 0 1 1.321 14.2192)" class="st2 st3 st4 st6">10</text>
</g>
<g id="レイヤー_1のコピー" class="st1">
	<g class="st2">
		<g>
			
				<radialGradient id="SVGID_1_" cx="7.9435" cy="824.267" r="16.1626" gradientTransform="matrix(1 0 0 1 0 -824)" gradientUnits="userSpaceOnUse">
				<stop  offset="0.2581" style="stop-color:#FFFFFF"/>
				<stop  offset="1" style="stop-color:#B3B3B3"/>
			</radialGradient>
			<path class="st7" d="M8.57,17.08L8.57,17.08c4.7,0,8.5-3.81,8.5-8.5l0,0c0-4.7-3.81-8.5-8.5-8.5l0,0c-4.7,0-8.5,3.81-8.5,8.5l0,0
				C0.06,13.27,3.87,17.08,8.57,17.08z"/>
		</g>
	</g>
</g>
<g class="st1">
	<g class="st2">
		<rect x="7.81" y="11.99" class="st8" width="1.7" height="1.7"/>
		<path class="st8" d="M8.66,3.51c-1.87,0-3.39,1.52-3.39,3.39h1.7c0-0.93,0.76-1.7,1.7-1.7s1.7,0.76,1.7,1.7
			c0,1.7-2.54,1.48-2.54,4.24h1.7c0-1.91,2.54-2.12,2.54-4.24C12.05,5.02,10.54,3.51,8.66,3.51z"/>
	</g>
</g>
<g id="レイヤー_3" class="st1">
	<path class="st9" d="M8.58,6.7c-1.03,0-1.87,0.83-1.87,1.87s0.83,1.87,1.87,1.87s1.87-0.83,1.87-1.87S9.61,6.7,8.58,6.7z
		 M12.75,8.1c-0.21-1.94-1.76-3.49-3.7-3.7V3.44H8.11V4.4c-1.94,0.21-3.49,1.76-3.7,3.7H3.45v0.93h0.96c0.21,1.94,1.76,3.49,3.7,3.7
		v0.96h0.93v-0.96c1.94-0.21,3.49-1.76,3.7-3.7h0.96V8.1H12.75z M8.58,11.83c-1.8,0-3.26-1.46-3.26-3.26S6.78,5.3,8.58,5.3
		s3.26,1.46,3.26,3.26S10.39,11.83,8.58,11.83z"/>
</g>
</svg>
