<?xml version="1.0" encoding="utf-8"?>
<!-- Generator: Adobe Illustrator 23.0.1, SVG Export Plug-In . SVG Version: 6.00 Build 0)  -->
<svg version="1.0" id="レイヤー_1" xmlns="http://www.w3.org/2000/svg" xmlns:xlink="http://www.w3.org/1999/xlink" x="0px"
	 y="0px" viewBox="0 0 117 117" style="enable-background:new 0 0 117 117;" xml:space="preserve">
<style type="text/css">
	.st0{fill:#FFFFFF;}
</style>
<rect x="18" y="18" class="st0" width="18" height="18"/>
<rect y="0" class="st0" width="54" height="9"/>
<rect y="9" class="st0" width="9" height="36"/>
<rect x="45" y="9" class="st0" width="9" height="36"/>
<rect y="45" class="st0" width="54" height="9"/>
<rect x="18" y="81" class="st0" width="18" height="18"/>
<rect y="63" class="st0" width="54" height="9"/>
<rect y="72" class="st0" width="9" height="36"/>
<rect x="45" y="72" class="st0" width="9" height="36"/>
<rect y="108" class="st0" width="54" height="9"/>
<rect x="81" y="18" class="st0" width="18" height="18"/>
<rect x="63" class="st0" width="54" height="9"/>
<rect x="63" y="9" class="st0" width="9" height="36"/>
<rect x="108" y="9" class="st0" width="9" height="36"/>
<rect x="63" y="45" class="st0" width="54" height="9"/>
<rect x="63" y="63" class="st0" width="27" height="9"/>
<rect x="63" y="72" class="st0" width="9" height="27"/>
<rect x="63" y="108" class="st0" width="27" height="9"/>
<rect x="81" y="81" class="st0" width="9" height="27"/>
<rect x="99" y="63" class="st0" width="18" height="9"/>
<rect x="99" y="81" class="st0" width="9" height="36"/>
<rect x="108" y="108" class="st0" width="9" height="9"/>
</svg>
