<?xml version="1.0" encoding="utf-8"?>
<!-- Generator: Adobe Illustrator 23.0.1, SVG Export Plug-In . SVG Version: 6.00 Build 0)  -->
<svg version="1.0" id="レイヤー_1" xmlns="http://www.w3.org/2000/svg" xmlns:xlink="http://www.w3.org/1999/xlink" x="0px"
	 y="0px" viewBox="0 0 14.57 14.38" style="enable-background:new 0 0 14.57 14.38;" xml:space="preserve">
<style type="text/css">
	.st0{fill:#FFFFFF;}
</style>
<path class="st0" d="M7.39,12.65l0.27-0.47c-1.62-0.95-3.38-1.43-5.08-1.43c-0.6,0-1.18,0.06-1.76,0.18l0.11,0.53h0.54
	c0-1.51,0-3.01,0-4.52s0-3.01,0-4.52H0.94l0.11,0.53c0.5-0.1,1.01-0.15,1.54-0.15c1.5,0,3.08,0.42,4.53,1.28L7.4,3.61H6.85
	c0,3.01,0,6.03,0,9.04L7.39,12.65l0.27-0.47L7.39,12.65h0.54c0-3.01,0-6.03,0-9.04V3.3L7.67,3.14C6.05,2.19,4.29,1.71,2.58,1.71
	c-0.6,0-1.18,0.06-1.76,0.18L0.39,1.98v0.44c0,1.51,0,3.01,0,4.52s0,3.01,0,4.52v0.67L1.04,12c0.5-0.1,1.01-0.15,1.54-0.15
	c1.5,0,3.07,0.42,4.53,1.28l0.82,0.48v-0.95H7.39"/>
<path class="st0" d="M7.23,12.65l0.27,0.47c1.46-0.85,3.03-1.28,4.53-1.28c0.52,0,1.04,0.05,1.54,0.15l0.65,0.13v-0.67
	c0-3.01,0-6.02,0-9.04V1.98l-0.43-0.09c-0.57-0.12-1.16-0.18-1.76-0.18c-1.71,0-3.47,0.48-5.08,1.43L6.68,3.3v0.31
	c0,3.01,0,6.03,0,9.04v0.95l0.82-0.48L7.23,12.65h0.54c0-3.01,0-6.03,0-9.04H7.23L7.5,4.08c1.46-0.86,3.03-1.28,4.53-1.28
	c0.52,0,1.04,0.05,1.54,0.15l0.11-0.53h-0.54c0,3.01,0,6.02,0,9.04h0.54l0.11-0.53c-0.57-0.12-1.16-0.18-1.76-0.18
	c-1.71,0-3.47,0.48-5.08,1.43L7.23,12.65h0.54H7.23"/>
</svg>
